<svg width="50" height="51" viewBox="0 0 50 51" fill="none" xmlns="http://www.w3.org/2000/svg">
<g clip-path="url(#clip0)">
<path d="M47.25 0.949219H2.75C1.25 0.949219 0 2.19922 0 3.69922V48.1992C0 49.6992 1.25 50.9492 2.75 50.9492H26.7V31.5992H20.2V24.0492H26.7V18.4992C26.7 12.0492 30.65 8.54922 36.4 8.54922C39.15 8.54922 41.55 8.74922 42.2 8.84922V15.5992H38.2C35.05 15.5992 34.45 17.0992 34.45 19.2492V24.0492H41.9L41 31.5992H34.5V50.9492H47.25C48.75 50.9492 50 49.6992 50 48.1992V3.69922C50 2.19922 48.75 0.949219 47.25 0.949219Z" fill="white"/>
</g>
<defs>
<clipPath id="clip0">
<rect width="50" height="50" fill="white" transform="translate(0 0.949219)"/>
</clipPath>
</defs>
</svg>
