<svg width="50" height="50" viewBox="0 0 50 50" fill="none" xmlns="http://www.w3.org/2000/svg">
<path d="M6.4 0H43.55C47.1 0 50 2.6 50 6.4V43.55C50 47.35 47.1 49.95 43.6 49.95H6.4C2.9 50 0 47.4 0 43.6V6.4C0 2.6 2.9 0 6.4 0ZM36.4 5.55C35.15 5.55 34.15 6.55 34.15 7.8V13.2C34.15 14.45 35.15 15.45 36.4 15.45H42.05C43.3 15.45 44.3 14.45 44.3 13.2V7.8C44.3 6.55 43.3 5.55 42.05 5.55H36.4ZM44.35 21.15H39.95C40.35 22.5 40.6 23.95 40.6 25.45C40.6 33.75 33.65 40.5 25.05 40.5C16.45 40.5 9.5 33.75 9.5 25.45C9.5 23.95 9.75 22.5 10.15 21.15H5.55V42.25C5.55 43.35 6.45 44.25 7.55 44.25H42.35C43.45 44.25 44.35 43.35 44.35 42.25V21.15ZM25.05 15.15C19.5 15.15 15 19.5 15 24.9C15 30.3 19.5 34.65 25.05 34.65C30.6 34.65 35.1 30.3 35.1 24.9C35.1 19.5 30.6 15.15 25.05 15.15Z" fill="white"/>
</svg>
