<svg width="50" height="49" viewBox="0 0 50 49" fill="none" xmlns="http://www.w3.org/2000/svg">
<path d="M7.0437 35.326L9.94721 38.9823L12.313 36.5089L9.94721 33.4979L7.0437 35.326ZM1.61306 33.6054L4.62411 38.2295L14.0336 32.2612L13.8186 32.2074L14.5713 33.1215V32.8527L6.66732 40.7567L10.6462 44.8969L19.518 34.2507L13.7648 27.0994L1.61306 33.6054ZM5.53818 16.8834L4.24773 22.5291L6.88239 22.7442L8.0653 17.7437L5.53818 16.8834ZM3.06482 12.3668L1.7206 16.3457L12.6356 20.7547L12.5281 20.5396L12.098 22.3678L12.2593 22.1527L0.537687 21.4537L0 25.7552H13.9261L15.6467 18.1738L3.06482 12.3668ZM18.9803 4.67788L13.2271 7.42008L14.5175 9.30198L19.6793 6.82862L18.9803 4.67788ZM20.4859 0L17.1522 1.18291L20.3246 12.9045L20.4859 12.6894L18.4964 13.6572H18.819L11.5065 3.87135L8.44168 5.80702L17.206 16.5608L23.6045 13.4959L20.4859 0ZM36.724 7.74269L30.4868 4.73164L29.9492 6.55978L35.7024 9.30198L36.724 7.74269ZM41.0255 5.69948L38.6059 4.14019L30.9708 14.0874H31.2396L28.9276 12.9583L29.1426 13.1733L32.0461 1.02161L29.2502 0.0537687L26.4542 13.7648L32.2074 16.5608L41.0255 5.69948ZM45.1657 23.6582L43.4989 16.3457L42.1009 16.9371L43.6602 23.7658L45.1657 23.6582ZM49.4672 25.2713L49.2521 23.0668L36.4014 23.013L36.5627 23.2281L35.9175 20.3783L35.8637 20.7009L47.424 15.0015L46.6712 12.9045L34.1969 19.3567L35.4873 24.9487L49.4672 25.2713ZM37.7994 39.9501L42.8536 33.6592L41.832 33.1753L37.1004 39.1436L37.7994 39.9501ZM39.6275 44.0903L40.7567 43.0687L32.7451 32.4763L32.6914 32.7451L34.7346 30.1642L34.412 30.3793L46.5099 35.7562L47.3165 34.412L34.412 28.8738L31.2396 32.7989L39.6275 44.0903ZM20.4321 44.0903H29.0889L28.8738 43.3913H20.6472L20.4321 44.0903ZM18.819 48.2305L19.6256 48.3918L23.2281 35.2723L22.9592 35.3798H26.5617L26.1854 35.2723L29.9492 48.3918L30.7557 48.2305L26.8843 34.6808H22.5829L18.819 48.2305Z" fill="#FF1919"/>
</svg>
