<?xml version="1.0" encoding="utf-8"?>
<!-- Generator: Adobe Illustrator 21.1.0, SVG Export Plug-In . SVG Version: 6.00 Build 0)  -->
<svg version="1.1" id="Layer_1" xmlns="http://www.w3.org/2000/svg" xmlns:xlink="http://www.w3.org/1999/xlink" x="0px" y="0px"
	 viewBox="0 0 50 49" style="enable-background:new 0 0 50 49;" xml:space="preserve">
<style type="text/css">
	.st0{fill:#FF1919;}
</style>
<g>
	<polygon class="st0" points="7.4,35.3 10.2,39 12.6,36.5 10.2,33.5 	"/>
	<polygon class="st0" points="1.9,33.6 4.9,38.2 14.2,32.3 14.1,32.2 14.9,33.1 14.9,32.9 7,40.8 11,44.9 19.7,34.3 14.1,27.1 	"/>
	<polygon class="st0" points="5.9,16.9 4.6,22.5 7.1,22.8 8.4,17.8 	"/>
	<polygon class="st0" points="3.4,12.4 2,16.4 12.9,20.8 12.7,20.6 12.4,22.4 12.6,22.2 0.9,21.5 0.2,25.8 14.1,25.8 16,18.2 	"/>
	<polygon class="st0" points="19.2,4.7 13.5,7.4 14.7,9.3 20,6.8 	"/>
	<polygon class="st0" points="20.7,0 17.5,1.2 20.6,12.9 20.7,12.7 18.7,13.7 19.1,13.7 11.7,3.9 8.7,5.8 17.5,16.6 23.9,13.5 	"/>
	<polygon class="st0" points="37,7.8 30.8,4.7 30.3,6.6 36,9.3 	"/>
	<polygon class="st0" points="41.2,5.7 38.8,4.2 31.3,14.1 31.6,14.1 29.1,13 29.5,13.2 32.3,1 29.6,0.1 26.8,13.8 32.5,16.6 	"/>
	<polygon class="st0" points="45.5,23.7 43.8,16.4 42.3,17 44,23.8 	"/>
	<polygon class="st0" points="49.8,25.3 49.6,23.1 36.7,23 36.8,23.2 36.2,20.4 36.2,20.7 47.7,15 47,12.9 34.5,19.4 35.8,25 	"/>
	<polygon class="st0" points="38.1,40 43.2,33.7 42.1,33.2 37.3,39.2 	"/>
	<polygon class="st0" points="39.8,44.1 41.1,43.1 33.1,32.5 33,32.8 35,30.2 34.7,30.4 46.8,35.8 47.6,34.4 34.7,28.9 31.6,32.8 	
		"/>
	<polygon class="st0" points="20.6,44.1 29.4,44.1 29.1,43.4 21,43.4 	"/>
	<polygon class="st0" points="19.1,48.2 19.9,48.4 23.5,35.3 23.2,35.4 26.9,35.4 26.5,35.3 30.3,48.4 31.1,48.2 27.1,34.7 
		22.9,34.7 	"/>
</g>
</svg>
