<?xml version="1.0" encoding="utf-8"?>
<!-- Generator: Adobe Illustrator 21.0.0, SVG Export Plug-In . SVG Version: 6.00 Build 0)  -->
<svg version="1.1" id="icon" xmlns="http://www.w3.org/2000/svg" xmlns:xlink="http://www.w3.org/1999/xlink" x="0px" y="0px"
	 width="500px" height="500px" viewBox="0 0 500 500" style="enable-background:new 0 0 500 500;" xml:space="preserve">
<style type="text/css">
	.st0{fill:#FF1919;}
</style>
<path class="st0" d="M203.433,475.5h8.044l28.728-102.702l-3.447,2.155h28.728l-4.309-2.155L290.623,475.5h7.9l-30.739-107.73
	h-34.186L203.433,475.5z M216.505,442.75h68.66l-1.58-6.607h-65.643L216.505,442.75z M356.824,454.681l9.206-7.725l-43.874-93.628
	l-1.157,3.637l20.369-17.091l-4.394,1.02l85.137,59.005l9.243-7.756l-91.829-63.578l-29.966,25.144L356.824,454.681z
	 M348.601,420.35l49.894-41.866l-7.508-6.117l-47.29,39.681L348.601,420.35z M461.598,340.511l2.777-15.749l-91.432-40.917
	l1.381,3.29l4.246-24.079l-2.55,3.343l100.037-7.885l2.819-15.985l-110.993,9.081l-7.649,43.38L461.598,340.511z M434.847,317.044
	l10.698-60.669l-12.586-0.129l-10.041,56.944L434.847,317.044z M469.215,185.574l-9.983-17.291l-92.86,27.904l2.964,1.495
	l-11.156-19.323l0.148,3.895l70.237-67.089l-10.198-17.664l-79.818,77.21l24.491,42.419L469.215,185.574z M433.299,181.874
	l-29.039-50.297l-12.12,9.651l26.956,46.69L433.299,181.874z M375.943,61.412l-22.496-8.188l-50.224,79.192l2.984-0.731l-18.957-6.9
	l2.385,2.686l11.755-93.194l-23.081-8.401l-12.7,110.021l50.661,18.439L375.943,61.412z M343.914,79.647L292.653,60.99
	l-3.849,17.995l46.987,17.102L343.914,79.647z M224.682,25.5l-26.231,9.547l13.505,89.602l1.644-2.297l-16.947,6.168l3.245,0.517
	l-47.924-77.074l-26.995,9.826l59.807,92.876l55.296-20.126L224.682,25.5z M208.935,59.884l-47.947,17.451l9.837,18.907
	l43.313-15.765L208.935,59.884z M85.241,94.641l-15.944,27.616l66.613,56.704l-0.232-2.567l-7.948,13.766l2.578-1.497
	l-82.772-28.715l-16.447,28.487l104.884,33.796l31.888-55.232L85.241,94.641z M92.922,132.856l-23.748,41.133l22.324,9.406
	l21.091-36.531L92.922,132.856z M22.125,237.106l6.227,35.317l84.368-1.02l-1.679-1.616l2.389,13.548l0.953-2.502l-79.504,28.604
	l6.435,36.496l102.288-40.287l-11.931-67.664L22.125,237.106z M51.894,264.302l7.635,43.302l25.966-7.885l-6.646-37.69
	L51.894,264.302z M63.853,386.48l33.56,28.161l57.103-53.527l-1.839-0.043l7.262,6.094l-0.582-1.988l-42.248,65.992l34.771,29.176
	l54.393-94.99l-60.189-50.504L63.853,386.48z M106.773,393.43l28.279,23.729l18.19-27.488l-23.327-19.574L106.773,393.43z"/>
</svg>
