<?xml version="1.0" encoding="utf-8"?>
<!-- Generator: Adobe Illustrator 21.1.0, SVG Export Plug-In . SVG Version: 6.00 Build 0)  -->
<svg version="1.1" id="Layer_1" xmlns="http://www.w3.org/2000/svg" xmlns:xlink="http://www.w3.org/1999/xlink" x="0px" y="0px"
	 viewBox="0 0 150.6 147.6" style="enable-background:new 0 0 150.6 147.6;" xml:space="preserve">
<style type="text/css">
	.st0{fill:#FF1919;}
</style>
<g>
	<polygon class="st0" points="22.3,106.8 31,117.9 37.9,110.4 31,101.4 	"/>
	<polygon class="st0" points="5.8,101.7 14.8,115.5 43,97.8 42.4,97.5 44.8,100.2 44.8,99.6 21.1,123.4 33.1,135.7 59.5,103.8 
		42.4,82.2 	"/>
	<polygon class="st0" points="17.8,51.6 13.9,68.4 21.7,69.3 25.3,54.3 	"/>
	<polygon class="st0" points="10.3,38.1 6.1,50.1 38.8,63.3 38.5,62.7 37.3,68.1 37.9,67.5 2.8,65.4 1,78.3 42.7,78.3 48.1,55.5 	
		"/>
	<polygon class="st0" points="58,14.9 40.6,23.1 44.5,28.8 60.1,21.3 	"/>
	<polygon class="st0" points="62.5,0.8 52.6,4.4 61.9,39.6 62.5,39 56.5,42 57.4,42 35.5,12.5 26.5,18.3 52.6,50.7 71.9,41.4 	"/>
	<polygon class="st0" points="111.2,24.3 92.6,14.9 91.1,20.7 108.2,28.8 	"/>
	<polygon class="st0" points="124.1,18 116.9,13.4 94.1,43.2 95,43.2 87.8,39.9 88.7,40.5 97.4,3.8 89,1.1 80.6,42.3 97.7,50.7 	"/>
	<polygon class="st0" points="136.7,72 131.6,50.1 127.4,51.9 132.2,72.3 	"/>
	<polygon class="st0" points="149.6,76.8 149,70.2 110.3,69.9 110.9,70.5 108.8,62.1 108.8,63 143.3,45.9 141.2,39.6 103.7,59.1 
		107.6,75.9 	"/>
	<polygon class="st0" points="114.5,121 129.8,102 126.5,100.5 112.4,118.5 	"/>
	<polygon class="st0" points="119.9,133.3 123.5,130.3 99.5,98.4 99.2,99.3 105.2,91.5 104.3,92.1 140.6,108.3 143,104.1 
		104.3,87.6 95,99.3 	"/>
	<polygon class="st0" points="62.2,133.3 88.4,133.3 87.8,131.2 63.1,131.2 	"/>
	<polygon class="st0" points="57.4,145.6 59.8,146.2 70.7,106.8 70.1,107.1 80.9,107.1 79.7,106.8 91.1,146.2 93.5,145.6 81.8,105 
		68.9,105 	"/>
</g>
</svg>
