<svg width="50" height="51" viewBox="0 0 50 51" fill="none" xmlns="http://www.w3.org/2000/svg">
<path d="M44.15 12.0992C46.4 10.6992 47.9 8.84922 48.6 6.44922C46.4 7.59922 44.25 8.39922 42.05 8.84922C40.1 6.74922 37.65 5.69922 34.65 5.69922C31.75 5.69922 29.3 6.69922 27.3 8.69922C25.3 10.6992 24.3 13.0992 24.3 15.9492C24.3 16.7992 24.4 17.5492 24.65 18.1992C16.15 17.8992 9.05 14.3492 3.5 7.49922C2.55 9.14922 2.1 10.8492 2.1 12.6492C2.1 16.2492 3.65 19.1492 6.65 21.2492C4.9 21.0992 3.4 20.6492 2.1 19.9492C2.1 22.5492 2.85 24.6992 4.4 26.5992C5.95 28.4992 7.9 29.6992 10.25 30.1992C9.35 30.3492 8.45 30.4492 7.5 30.4492C6.65 30.4492 6 30.3992 5.65 30.1992C6.3 32.2992 7.5 33.9992 9.25 35.2992C11 36.5992 13 37.2992 15.25 37.3492C11.5 40.2992 7.3 41.7492 2.5 41.7492C1.35 41.7492 0.5 41.7492 0 41.6492C4.7 44.6992 9.95 46.2492 15.75 46.2492C21.7 46.2492 26.95 44.7492 31.5 41.7492C36.05 38.7492 39.45 35.0492 41.6 30.6992C43.8 26.3492 44.85 21.8492 44.85 17.0992V15.7992C47 14.1992 48.7 12.3992 50 10.4492C48.1 11.2492 46.15 11.7992 44.15 12.0992Z" fill="white"/>
</svg>
